# xmcd
#
# Track frame offsets:
#	150
#	18017
#	29301
#	41031
#	53199
#	66397
#	80444
#	98553
#	110706
#	122070
#	135351
#	147765
#	158997
#	171546
#	188357
#	209178
#	224013
#	236711
#	250335
#	260615
#	275770
#	284790
#	299940
#	313121
#	326583
#	336674
#
# Disc length: 4686 seconds
#
# Revision: 1
# Processed by: cddbd v1.5.2PL0 Copyright (c) Steve Scherf et al.
# Submitted via: EZCDAudioConverter 7.0.6.1
#
DISCID=b0124c1a
DTITLE=Various Artist - Looking At The Pictures In The Sky 1/3
DYEAR=2017
DGENRE=
TTITLE0=The Factory - Path Through The Forest
TTITLE1=The Fire - Father's Name Is Dad
TTITLE2=Fleur De Lys - Gong With The Luminous Nose
TTITLE3=Ramases and Selket - Mind's Eye
TTITLE4=Crazy World Of Arthur Brown - Spontaneous Apple Creation
TTITLE5=Grapefruit - Lullaby [Alternative Version]
TTITLE6=Circle Plantagenet - I Will Not Be Moved
TTITLE7=Turquoise - Sunday Best
TTITLE8=The Onyx - My Son John
TTITLE9=Legay - The Fantastic Story Of The Steam-Driven Banana
TTITLE10=Fortes Mentum - Mr. Partridge Passed Away Today
TTITLE11=Boeing Duveen and The Beautiful Soup - Jabberwock
TTITLE12=Anan - Haze Woman
TTITLE13=Pretty Things - Talkin' About The Good Times
TTITLE14=Guy and David - The Five Day Week Straw People - Sunday Morning
TTITLE15=Graded Grains - Animal Magic
TTITLE16=Tuesday's Children - She
TTITLE17=The Marmalade - Mr. Lion
TTITLE18=Graham Gouldman - Upstairs Downstairs
TTITLE19=Joker - Festival Of The Harvest Moon
TTITLE20=Sun Dragon - So You Want To Be A Rock 'N' Roll Star
TTITLE21=Eyes Of Blue - Never Care
TTITLE22=Gass Company - Nightmare
TTITLE23=Procol Harum - In The Wee Small Hours Of Sixpence
TTITLE24=The Web - Did You Die Four Years Ago Tonight?
TTITLE25=Glass Menagerie - Frederick Jordan
EXTD=
EXTT0=
EXTT1=
EXTT2=
EXTT3=
EXTT4=
EXTT5=
EXTT6=
EXTT7=
EXTT8=
EXTT9=
EXTT10=
EXTT11=
EXTT12=
EXTT13=
EXTT14=
EXTT15=
EXTT16=
EXTT17=
EXTT18=
EXTT19=
EXTT20=
EXTT21=
EXTT22=
EXTT23=
EXTT24=
EXTT25=
PLAYORDER=
